<?xml version="1.0" standalone="no"?>
<!DOCTYPE svg PUBLIC "-//W3C//DTD SVG 1.1//EN" "http://www.w3.org/Graphics/SVG/1.1/DTD/svg11.dtd" >
<svg xmlns="http://www.w3.org/2000/svg" xmlns:xlink="http://www.w3.org/1999/xlink" version="1.1">
<metadata>
Created by FontForge 20201107 at Thu Feb 15 21:36:41 2001
 By 
Northern Fonts Ltd.
</metadata>
<defs>
<font id="BOOTLE" horiz-adv-x="1000" >
  <font-face 
    font-family="BOOTLE"
    font-weight="400"
    font-stretch="normal"
    units-per-em="1000"
    panose-1="0 0 4 0 0 0 0 0 0 0"
    ascent="800"
    descent="-200"
    x-height="702"
    cap-height="702"
    bbox="-15 -250 662 1104"
    underline-thickness="50"
    underline-position="-125"
    unicode-range="U+0020-FB01"
  />
<missing-glyph horiz-adv-x="500" 
d="M63 0v760h375v-760h-375zM125 63h250v635h-250v-635z" />
    <glyph glyph-name=".notdef" horiz-adv-x="500" 
d="M63 0v760h375v-760h-375zM125 63h250v635h-250v-635z" />
    <glyph glyph-name=".null" horiz-adv-x="0" 
 />
    <glyph glyph-name="nonmarkingreturn" horiz-adv-x="200" 
 />
    <glyph glyph-name="space" unicode=" " horiz-adv-x="200" 
 />
    <glyph glyph-name="exclam" unicode="!" horiz-adv-x="200" 
d="M178 80q0 -84 -64 -84q-68 0 -68 87q0 82 65 82q66 0 67 -85zM178 199l-47 2q-28 1 -77 -5q2 47 2 126q0 283 -17 387q44 -5 62 -5q32 0 91 11q-10 -119 -10 -209q0 -22 -2 -121t-2 -186z" />
    <glyph glyph-name="quotedbl" unicode="&#x22;" horiz-adv-x="317" 
d="M255 408h-25l-44 250l-1 25q-2 28 16 47t44 19q23 0 39 -17t14 -45v-17zM89 408h-26l-45 274q-2 32 19 51q18 16 41 16t39 -17t15 -45l-1 -17z" />
    <glyph glyph-name="numbersign" unicode="#" 
 />
    <glyph glyph-name="dollar" unicode="$" 
 />
    <glyph glyph-name="percent" unicode="%" 
 />
    <glyph glyph-name="ampersand" unicode="&#x26;" 
 />
    <glyph glyph-name="quotesingle" unicode="'" horiz-adv-x="166" 
d="M97 408h-26l-43 250l-2 25q-2 31 19 49q17 17 42 17q23 0 47 -29q7 -15 5 -50z" />
    <glyph glyph-name="parenleft" unicode="(" horiz-adv-x="183" 
d="M141 770l45 -1q-18 -61 -32 -151q-24 -155 -24 -325q0 -242 44 -419l-43 -1q-16 35 -57 162q-43 152 -43 274q0 103 25 219q30 135 85 242z" />
    <glyph glyph-name="parenright" unicode=")" horiz-adv-x="183" 
d="M42 -128l-44 1q19 68 32 151q24 156 24 326q0 241 -45 418l43 1q16 -35 58 -162q42 -151 42 -274q0 -104 -25 -219q-29 -135 -85 -242z" />
    <glyph glyph-name="asterisk" unicode="*" horiz-adv-x="217" 
d="M171 485l-47 64q9 -53 20 -94q-31 1 -64 -1q5 20 16 98q-27 -35 -47 -74l-39 64q36 14 72 37q-34 11 -70 10q13 35 27 86q19 -26 51 -54q-10 56 -17 86l33 -1l35 2q-8 -29 -17 -87q22 23 42 59q16 -33 36 -67q-38 -12 -64 -29q23 -13 68 -32q-19 -31 -35 -67z" />
    <glyph glyph-name="plus" unicode="+" horiz-adv-x="400" 
d="M374 356v-128h-124v-156h-101v156h-122v128h122v154h101v-154h124z" />
    <glyph glyph-name="comma" unicode="," horiz-adv-x="150" 
d="M69 -105l-76 -16q37 166 37 230q0 20 -8 45q24 -4 51 -4q32 0 68 7q-12 -113 -72 -262z" />
    <glyph glyph-name="hyphen" unicode="-" horiz-adv-x="250" 
d="M125 413q71 0 114 5q-4 -52 -4 -88q0 -40 4 -68h-1q-12 0 -52 1.5t-63 1.5q-83 -1 -110 -3q3 43 3 83q0 34 -3 73q56 -5 112 -5z" />
    <glyph glyph-name="hyphen" unicode="&#x2010;" horiz-adv-x="250" 
d="M125 413q71 0 114 5q-4 -52 -4 -88q0 -40 4 -68h-1q-12 0 -52 1.5t-63 1.5q-83 -1 -110 -3q3 43 3 83q0 34 -3 73q56 -5 112 -5z" />
    <glyph glyph-name="period" unicode="." horiz-adv-x="150" 
d="M140 76q-1 -83 -64 -83q-66 0 -66 83q0 85 67 85q65 0 63 -85z" />
    <glyph glyph-name="slash" unicode="/" horiz-adv-x="250" 
d="M187 474l-72 -294q-34 -138 -41 -191q-8 2 -19 3q-6 1 -19 1q-16 0 -43 -4q6 12 22 53q16 48 49 185l100 414q11 45 13 79q16 -5 36 -5q14 0 50 5q-30 -59 -76 -246z" />
    <glyph glyph-name="zero" unicode="0" horiz-adv-x="374" 
d="M365 352q0 -191 -38 -273q-41 -88 -139 -88q-113 0 -150 119q-23 71 -23 234q0 153 23 226q39 128 154 128q101 0 140 -90q33 -76 33 -256zM244 345q0 303 -51 303q-56 0 -56 -313q0 -280 52 -280q55 0 55 290z" />
    <glyph glyph-name="one" unicode="1" horiz-adv-x="260" 
d="M225 413v-132q0 -98 2 -180q2 -72 15 -103h-82q-63 1 -68 0q9 39 11 85q2 69 2 167v123q0 139 -6 206q-53 -20 -85 -46l1 33q0 1 -5 43q46 11 92 35l130 66q-7 -73 -7 -297z" />
    <glyph glyph-name="two" unicode="2" horiz-adv-x="361" 
d="M121 72l163 3q26 0 44 13q3 2 22 20q0 -8 -10 -54q0 -6 -13 -57q-35 3 -83 2q-77 -2 -69 -2t-80 3q-54 1 -85 -3v0q0 6 -2 17q-2 6 2 45q-2 117 58 217q21 34 112 143q61 72 61 121q0 48 -29 74q-26 23 -65 23q-42 0 -73 -23q-34 -25 -45 -62q-3 -25 -9 -25q-12 0 -12 41
q0 12 2 24q6 39 47 76q53 42 106 42q72 0 126 -50q58 -54 58 -139q0 -63 -57 -140q-40 -47 -81 -95q-54 -68 -61 -82q-25 -48 -27 -132z" />
    <glyph glyph-name="three" unicode="3" horiz-adv-x="355" 
d="M219 418l-16 -2l20 -4q37 -7 74 -59q46 -65 46 -153q0 -100 -50.5 -153.5t-148.5 -53.5q-76 0 -131 22q1 13 19 82q38 -36 92 -36q38 0 59 54q16 41 16 85q0 55 -21 102q-28 60 -79 60q-26 0 -52 -5l2 39q0 -4 -2 31q18 -3 36 -3q101 0 101 94q0 55 -9 78q-17 42 -70 41
q-35 -1 -84 -43l20 91q59 15 110 15q53 0 83 -14q84 -40 84 -156q0 -100 -99 -112z" />
    <glyph glyph-name="four" unicode="4" horiz-adv-x="371" 
d="M314 595v-327q29 0 52 4v-63v-12q-1 0 -1 5q0 3 1 -5q-25 3 -49 2v-120q0 -68 11 -81h-56q-13 0 -42 2q-22 1 -34 0q16 8 17 71q-2 -111 -2 128h-194l-2 53q84 262 159 433q10 1 35 0h50h63q-8 -26 -8 -90zM87 268h125v100q0 127 -5 257z" />
    <glyph glyph-name="five" unicode="5" horiz-adv-x="355" 
d="M98 596l-5 -175q37 8 94 8q61 0 100 -45q43 -50 43 -155q0 -238 -204 -238q-67 0 -116 23l23 71q25 -32 72 -32q21 0 37 7q24 10 43 60t19 94q0 55 -32 101q-30 43 -64 43q-42 0 -75 -22q17 139 17 234q0 77 -1 127q83 -16 173 -16q58 0 85 8q12 4 37 20q-2 -31 -14 -70
q-9 -28 -23 -38q-22 -14 -77 -14q-67 0 -132 9z" />
    <glyph glyph-name="six" unicode="6" horiz-adv-x="400" 
d="M257 698q52 0 102 -24l-30 -68q-13 25 -16 28q-16 17 -50 17q-47 0 -71 -41q-13 -23 -25 -89t-10 -114q28 53 94 53q124 0 124 -207q0 -149 -41.5 -205t-120.5 -56q-93 0 -140.5 81.5t-47.5 242.5q0 168 42 262q54 120 190 120zM269 227q1 79 -12 126q-16 54 -48 51
q-18 -1 -39 -49q-25 -58 -25 -131q0 -65 22 -118q20 -47 41 -49q58 -4 61 170z" />
    <glyph glyph-name="seven" unicode="7" horiz-adv-x="400" 
d="M279 606l-168 -2q-46 -1 -64 -29q3 43 3 98q0 26 -2 19q-3 -8 -2 -9h92h93h163l-9 -13q-38 -51 -121 -283q-91 -252 -91 -347q0 -35 14 -42h-69h-87q30 53 76 169q76 190 107 269z" />
    <glyph glyph-name="eight" unicode="8" horiz-adv-x="367" 
d="M178 697q164 0 164 -165q0 -140 -84 -164l-18 -5l21 -6q62 -18 82 -69q10 -26 10 -85q0 -212 -176 -212q-76 0 -123.5 50t-47.5 142q0 69 13 104q25 67 100 77q-97 18 -97 152q0 82 40.5 131.5t115.5 49.5zM180 339q-27 0 -42 -56q-11 -43 -11 -92q0 -50 11 -94
q15 -56 40 -56q26 0 41 58q12 43 13 94q0 48 -11 91q-14 55 -41 55zM183 664q-16 0 -33 -46q-18 -50 -18 -107q0 -33 11 -67q14 -46 39 -46q24 0 37 41q12 33 12 76q0 49 -13 96q-15 53 -35 53z" />
    <glyph glyph-name="nine" unicode="9" horiz-adv-x="358" 
d="M178 698q110 0 148 -116q22 -67 22 -200q0 -229 -67 -320q-53 -71 -162 -71q-69 0 -111 26q9 11 35 67q22 -39 56 -39h13q9 1 12 1q51 0 78 82q20 60 20 129v26q-27 -56 -82 -56q-128 0 -128 226q0 126 52 188q48 57 114 57zM180 646q-23 0 -40 -63q-16 -59 -16 -124
q0 -77 21 -128q17 -41 33 -41q22 0 37.5 53t15.5 132q0 64 -15 117.5t-36 53.5z" />
    <glyph glyph-name="colon" unicode=":" horiz-adv-x="183" 
d="M169 421q-2 -83 -63 -83q-66 0 -66 84t66 84q64 0 63 -85zM169 76q-2 -83 -63 -83q-66 0 -66 83q0 85 66 85q64 0 63 -85z" />
    <glyph glyph-name="semicolon" unicode=";" horiz-adv-x="183" 
d="M170 421q-1 -83 -64 -83q-65 0 -65 84t66 84q64 0 63 -85zM94 -105l-77 -16q37 132 37 222q0 26 -8 53q24 -4 52 -4q36 0 67 8q-10 -135 -71 -263z" />
    <glyph glyph-name="less" unicode="&#x3c;" horiz-adv-x="400" 
d="M400 207v-138l-399 220v124l399 225v-139l-262 -148z" />
    <glyph glyph-name="equal" unicode="=" horiz-adv-x="400" 
d="M400 251v-128h-400v128h400zM400 458v-127h-400v127h400z" />
    <glyph glyph-name="greater" unicode="&#x3e;" horiz-adv-x="400" 
d="M400 289l-400 -220v138l263 144l-263 148v138l400 -224v-124z" />
    <glyph glyph-name="question" unicode="?" horiz-adv-x="334" 
d="M193 85q3 -90 -63 -90q-35 0 -53 27q-16 23 -16 59q0 82 65 82q64 0 67 -78zM151 716q69 0 105 -29q65 -51 65 -193q0 -232 -139 -224q-2 -46 5 -79q-27 6 -54 6t-60 -6q5 32 5 82q0 65 -5 111q20 -8 42 -8q73 0 73 99q0 88 -66 88q-24 0 -48 -13q-9 94 -24 149
q49 17 101 17z" />
    <glyph glyph-name="at" unicode="@" horiz-adv-x="717" 
d="M624 100l38 -61q-63 -71 -112 -104q-85 -59 -185 -59q-113 0 -198 73q-112 97 -112 287q0 195 106.5 335.5t260.5 140.5q119 0 184 -93q56 -80 56 -197q0 -139 -58.5 -248t-131.5 -109q-61 0 -73 69q-49 -68 -101 -68q-43 0 -73 36q-38 45 -38 134q0 109 49 195
q51 92 126 92q50 0 84 -60l7 39h73l-27 -158q-23 -139 -23 -167q0 -27 16 -27q29 0 64 78q39 87 39 191q0 108 -57 166q-49 48 -123 48q-115 0 -204 -115q-91 -119 -91 -283q0 -145 82 -219q66 -61 161 -61q137 0 261 145zM419 349q0 45 -20 68q-15 17 -34 17q-41 0 -69 -65
q-26 -60 -26 -130q0 -40 15 -62t36 -22q38 0 68.5 62t29.5 132z" />
    <glyph glyph-name="A" unicode="A" horiz-adv-x="466" 
d="M356 425l27 -142q50 -264 93 -285h-85q3 0 -44 3q-35 2 -66 -1l13 21q-1 28 -12 127h-131q-13 -65 -13 -98q0 -36 15 -50q-10 1 -39 0q-38 -2 -62 -2h-63q27 15 43 72q12 39 51 228l28 134q41 196 41 222q0 40 -28 50q21 0 58 -1h59q23 0 55 1h57q-39 -14 -39 -58
q0 -25 13 -85q26 -123 29 -136zM169 280h93l-48 274z" />
    <glyph glyph-name="B" unicode="B" horiz-adv-x="564" 
d="M47 412v279q0 166 -1.5 239t-13.5 116q-10 29 -21 58h177h91q89 0 129 -19q61 -30 90 -122q18 -58 18 -128q0 -129 -53 -200q-33 -44 -76 -55q41 -10 58 -18q35 -16 58 -46q56 -72 56 -209q0 -191 -98 -266q-61 -48 -154 -46l-280 5q-14 0 -10 0t3 0h-20q40 36 44 98
q3 79 3 314zM211 1025v-365q25 -12 56 -12q35 0 63 42q33 48 33 124q0 91 -21 150q-25 71 -74 68q-21 -2 -57 -7zM212 537v-392q0 -46 16 -63.5t59 -15.5q114 4 114 248q0 77 -36 151q-42 85 -99 85q-2 0 -54 -13z" />
    <glyph glyph-name="C" unicode="C" horiz-adv-x="365" 
d="M263 715q48 0 100 -16q-9 -30 -29 -101q-21 37 -65 37q-69 0 -101 -99q-22 -67 -22 -150q0 -150 25 -223q34 -99 123 -101q36 -1 63 22q-7 -27 -15 -83q-40 -11 -87 -11q-41 0 -77 11q-94 28 -136 124q-33 72 -33 248q0 158 49 240q62 102 205 102z" />
    <glyph glyph-name="D" unicode="D" horiz-adv-x="472" 
d="M39 277v181q0 106 -2 157q-2 37 -11 59q-8 17 -16 33q18 0 53.5 -1.5t52.5 -1.5q14 0 36 1q29 1 35 1l51 1q81 0 129 -37q97 -74 97 -301q0 -148 -36 -235q-33 -81 -94 -112q-44 -23 -115 -23h-205q14 46 17 71q8 62 8 207zM170 487v-234q0 -113 2 -139q2 -40 49 -40
q58 0 82 59q21 52 21 166q0 144 -24 233q-27 105 -81 105q-10 0 -26.5 -1t-18.5 -1q-4 -72 -4 -148z" />
    <glyph glyph-name="E" unicode="E" horiz-adv-x="371" 
d="M176 348l-2 -203q0 -63 1 -71q3 -17 20 -17q6 0 26 3q65 9 84 17q25 11 68 55q-6 -46 -21 -134h-151q1 0 -95 2q-58 1 -96 -2q8 20 10 28q5 15 6 39q3 54 3 204v178q0 75 -1 148q-2 50 -6 70q-2 11 -14 36q18 1 57 0h87h200q1 -1 -5 -51l-7 -54q-13 20 -21 23.5t-37 5.5
q-47 3 -107 1v-194h48q46 0 58 2q19 2 37 13v-50v-65q-20 16 -74 16h-68z" />
    <glyph glyph-name="F" unicode="F" horiz-adv-x="366" 
d="M30 242l1 223q0 130 -3 161q-3 39 -20 77h168q146 0 171 2q1 -2 9 -48q4 -22 10 -68q-22 21 -34 28q-29 15 -79 14l-78 -1q-5 -70 -5 -202h76q73 0 94 16q-6 -43 -6 -53q0 -15 3 -55q-25 15 -97 14l-70 -1q-2 -202 0 -267q2 -48 16 -83h-64h-104q4 13 10 53q2 14 2 190z
" />
    <glyph glyph-name="G" unicode="G" horiz-adv-x="458" 
d="M334 68v159q0 74 -16 100q56 -6 66 -6q42 0 80 6l-6 -16q-7 -17 -9 -83q-5 -164 9 -221q-15 -2 -87 -9q-58 -6 -95 -6q-126 0 -193 91.5t-67 266.5q0 365 286 365q77 0 143 -34q-2 -6 -17 -34q-8 -14 -13 -60q-40 54 -109 54q-134 0 -134 -284q0 -111 21 -189
q29 -102 87 -102q46 0 54 2z" />
    <glyph glyph-name="H" unicode="H" horiz-adv-x="462" 
d="M446 464v-190q0 -247 18 -277h-77h-87q16 47 16 119v250h-156l-1 -230q0 -100 15 -139h-72h-89q17 46 17 110v355q0 123 -2 154q-2 49 -15 86h22h46h91q-12 -42 -12 -110v-134h156q1 95 0 152q-1 53 -13 92h38h43h82q-5 -10 -14 -48q-6 -56 -6 -190z" />
    <glyph glyph-name="I" unicode="I" horiz-adv-x="182" 
d="M153 440v-152q0 -93 2 -158q3 -88 21 -132h-80.5h-80.5q13 38 15 131q1 57 1 164l-2 300q0 64 -17 109q12 1 40 0h43h78q-6 -12 -15 -55q-5 -53 -5 -207z" />
    <glyph glyph-name="J" unicode="J" horiz-adv-x="283" 
d="M247 547l4 -353q1 -90 -19 -128q-38 -75 -162 -75q-27 0 -61 9v82q24 -19 50 -19q67 0 67 98v288q0 149 -4 188q-4 30 -23 66q13 1 40 0h42q75 0 94 2q-10 -8 -23 -37q-6 -33 -5 -121z" />
    <glyph glyph-name="K" unicode="K" horiz-adv-x="482" 
d="M40 123v320q0 64 -3 160q-1 39 -4 52q-4 25 -18 47h46h29h87q-10 -21 -12 -30q-4 -18 -5 -65q-3 -76 -3 -221q129 242 129 297q0 4 -4.5 9t-5.5 10q14 1 43 0h64h87q-73 -26 -194 -283q41 -91 92 -196q37 -80 75 -160q28 -58 43 -65h-96h-92l18 15q4 3 4 13q0 35 -43 144
q-35 89 -66 150l-51 -89l-3 -138q-1 -60 13 -95h-62h-83q15 38 15 125z" />
    <glyph glyph-name="L" unicode="L" horiz-adv-x="334" 
d="M162 460l-2 -135v-161q0 -58 3 -73q6 -19 26 -19q11 0 41 6q42 8 73 34q18 18 35 36q-11 -55 -25 -150q-36 4 -102 2q-107 -2 -97 -2h-105q12 25 15 50q7 43 7 336v190q0 85 -19 129h88h82q-5 -9 -10 -19t-6 -27q-1 -9 -4 -197z" />
    <glyph glyph-name="M" unicode="M" horiz-adv-x="550" 
d="M521 413l2 -124q1 -113 4 -170q4 -87 16 -121h-69h-90q7 25 10 54q10 109 5 373l-2 103q-10 -58 -47 -220l-25 -100q-36 -139 -44 -210h-19v0q-8 27 -44 181l-34 157q-19 64 -52 199q-6 -95 -6 -197v-40q0 -236 1 -249q2 -27 9 -51q-14 3 -24 2q-19 -2 -29 -2h-72
q10 26 15 60q10 80 17 368l3 128q2 76 -1 101q-2 19 -15 47q14 1 47 0h68.5h68.5q3 -15 25 -140q8 -43 46 -226q59 239 79 366h114h59q-13 -37 -14 -124q-2 -115 -2 -165z" />
    <glyph glyph-name="N" unicode="N" horiz-adv-x="415" 
d="M386 402l-2 -143q-1 -102 0 -169q1 -63 13 -92h-58h-73q-37 119 -45 144q-18 53 -53 145l-53 142l-2 -143q-1 -103 3 -202q2 -58 12 -86h-28h-87q11 9 12 30l2 76q1 25 3 218l1 88q1 113 -2 179q-3 72 -18 113h42h59h55q7 -26 35 -108l101 -296l1 90q1 105 -4 220
q-2 64 -16 94q11 1 37 0q7 -1 5 -1t-1 1h11h71q-4 -9 -11 -38q-8 -63 -10 -262z" />
    <glyph glyph-name="O" unicode="O" horiz-adv-x="464" 
d="M456 363q0 -166 -38 -252q-52 -120 -184 -120q-137 0 -186 128q-30 78 -30 235q0 133 31 216q54 145 188 145q141 0 191 -138q28 -75 28 -214zM312 359q0 122 -19 202q-22 87 -59 87q-29 0 -50 -40t-24 -110q-7 -140 -7 -146q0 -144 25 -219q21 -67 57 -67q40 0 53 38
q9 27 17 125q7 86 7 130z" />
    <glyph glyph-name="P" unicode="P" horiz-adv-x="386" 
d="M30 220v203q0 118 -2.5 177.5t-19.5 101.5h28h45h49h81q34 0 47 -3q31 -6 58 -32q61 -58 61 -182q0 -58 -14 -107q-34 -123 -157 -129q1 0 -56 3q-1 -88 1 -158q1 -35 3 -49q4 -26 15 -47h-95h-62q12 23 15 53t3 169zM150 644v-328q9 -3 28 -3q34 0 52 59q15 46 15 107
q0 58 -15 107q-19 61 -54 61q-11 0 -26 -3z" />
    <glyph glyph-name="Q" unicode="Q" horiz-adv-x="489" 
d="M257 715q90 0 148 -60q78 -81 78 -275q0 -56 -5 -110q-15 -142 -76 -207q22 -39 43 -78q31 -49 64 -49h17h-66q-64 2 -92 0q-1 7 -3 7q-5 0 -4 0q-6 0 -14 12q-20 32 -30 46q-24 -6 -53 -6q-105 0 -162 59q-85 87 -85 305q0 356 240 356zM331 370q0 278 -78 278
q-35 0 -59 -73q-26 -81 -26 -226q0 -127 21 -201q22 -78 62 -78q80 0 80 300z" />
    <glyph glyph-name="R" unicode="R" horiz-adv-x="462" 
d="M31 282l-2 166q0 65 -2 179q-2 49 -19 76h39h25h170q77 -2 121 -73q36 -57 36 -123q0 -75 -26 -130q-18 -37 -57 -65q81 -218 142 -314h-91h-79q13 8 13 33q0 48 -80 245l-50 -7l-20 1l-1 -101q-1 -125 18 -171h-93h-57q10 30 12 87q2 72 1 197zM151 645v-319q9 -2 27 -2
q29 0 57 47q32 53 32 121q0 48 -18 97q-23 61 -61 61q-15 0 -37 -5z" />
    <glyph glyph-name="S" unicode="S" horiz-adv-x="416" 
d="M209 719q40 -1 82 -20.5t51 -19.5q13 0 24 14q-8 -29 -29 -109q-35 33 -39 37q-29 19 -72 21q-33 1 -57 -20q-29 -25 -29 -72q0 -56 47 -90q49 -29 99 -57q120 -72 120 -184q0 -105 -57 -165q-61 -64 -175 -64q-65 0 -110 37q-50 41 -56 110q1 45 19 71q14 21 30 21
q10 0 10 -10q0 -7 -8 -17q-3 -12 -3 -24q0 -41 28 -72.5t59 -33.5q61 -4 95.5 26.5t34.5 88.5q0 64 -61 116q-1 1 -103 63q-73 44 -91 122q-12 55 5 106q43 129 186 125z" />
    <glyph glyph-name="T" unicode="T" horiz-adv-x="417" 
d="M286 446v-113q0 -418 2 -472q2 -46 16 -71q9 -15 32 -32h-124h-130q16 18 32 35q19 27 20 69q3 61 3 469v118q0 131 -3 162l-54 2q-34 1 -64 -22q-22 -17 -31 -38q0 14 9 39q11 31 15 50q4 13 15 61q23 1 78 0q64 -2 96 -2q133 0 191 7q1 -20 19 -79q11 -29 25 -76
q-24 29 -36 38q-32 24 -71 22l-41 -2v-67q1 -67 1 -98z" />
    <glyph glyph-name="U" unicode="U" horiz-adv-x="431" 
d="M303 189v355q0 91 -2.5 112.5t-14.5 45.5h73h62q-4 -8 -11 -36q-4 -43 -4 -210v-252q0 -99 -26 -142q-18 -29 -37 -41q-41 -28 -122 -29q-88 -1 -142 37q-24 18 -40 69q-13 46 -13 95v263q0 126 -2 168q-2 52 -17 78q13 1 41 0h42h87q-8 -21 -10 -31q-4 -16 -5 -52
q-3 -92 -3 -438q0 -61 11 -84q15 -33 64 -33q48 0 60 30q9 21 9 95z" />
    <glyph glyph-name="V" unicode="V" horiz-adv-x="423" 
d="M330 397l-50 -227q-33 -149 -33 -160q0 -7 2 -12h-57q-16 0 -37 2q-15 2 -28 0q8 5 8 26q0 28 -18 109q-27 121 -34 155l-61 325q-9 50 -31 87h80.5h80.5q-11 -19 -11 -38q0 -16 3 -40q8 -58 25 -175l41 -246q4 17 26 134l18 100q34 183 34 235q0 13 -4 30h63h71
q-11 -17 -14 -24q-8 -17 -18 -54q-19 -74 -56 -227z" />
    <glyph glyph-name="W" unicode="W" horiz-adv-x="542" 
d="M486 389l-23 -131q-29 -163 -33 -260h-62h-54q-1 40 -28 309l-18 145l-54 -311q-8 -46 -20 -143h-43h-67q0 34 -22 266l-42 357q-5 40 -21 82q11 1 35 0h47h61q-6 -26 -5 -35l1 -34q6 -125 16 -231l16 -191l32 218q16 109 35 273h42h8h53q0 -18 4 -57q7 -85 28 -274
l18 -168l26 191q28 203 28 278q0 12 -4 30h76h35q-5 -10 -17 -47q-3 -16 -48 -267z" />
    <glyph glyph-name="X" unicode="X" horiz-adv-x="437" 
d="M162 395v0q-28 72 -88 236q-19 53 -73 72h40h54q105 0 117 1q-15 -8 -19 -14.5t-2 -23.5q5 -41 47 -145q3 6 5 9v0q-6 -11 -9 -16v0q1 1 4 7q7 16 30 77q27 74 27 91q0 -3 -9 14h39h59q33 0 57 3q-33 -12 -80 -88.5t-87 -181.5q68 -240 73 -256q54 -168 88 -180h-70
q-68 0 -95 -2l-11 2q6 8 6 23t-9 42l-68 220l-75 -208q-7 -20 -7 -36q0 -20 11 -32q6 -6 15 -10q2 -1 -8 -1h-21h-54h-54q23 36 53 107q26 63 114 290z" />
    <glyph glyph-name="Y" unicode="Y" horiz-adv-x="395" 
d="M240 247l-2 -143q0 -73 16 -105h-77h-59q5 8 14 32q4 25 4 219l-29 105q-15 60 -71 245q-22 69 -50 105h52h60h41l-1 -2q-1 0 -3 5q-1 3 -1 -3q0 -60 70 -315l36 121q32 108 32 156q0 30 -12 38q-5 3 -6 4v0q4 -5 6 -4q16 1 47 0h17h80q-33 -17 -61 -99q-6 -18 -72 -249z
" />
    <glyph glyph-name="Z" unicode="Z" horiz-adv-x="376" 
d="M385 702l-10 -14q-16 -21 -97 -298q-80 -272 -80 -295q0 -22 44 -22q26 0 95 17q24 6 44 26q-16 -82 -16 -118q-37 3 -96 2q-93 -2 -79 -2q-11 0 -93 2q-47 1 -91 -2q12 29 56 151l50 140l36 110q56 171 56 208q0 8 -2 11q-34 3 -65 3q-72 0 -91 -5.5t-32 -28.5l12 71
l9 44q3 1 30 0h106h214z" />
    <glyph glyph-name="bracketleft" unicode="[" horiz-adv-x="200" 
d="M138 701v-761h49q-1 -8 -1 -34q0 -7 1 -18v-14q-43 2 -65 2q-31 0 -93 -2q14 27 17 65q5 90 5 157l-1 526q0 104 -15 151q29 -6 91 -6q35 0 63 6q-3 -20 -3 -35q0 -1 3 -37h-51z" />
    <glyph glyph-name="backslash" unicode="\" horiz-adv-x="250" 
d="M91 641l101 -414q35 -144 48 -185q10 -30 23 -53q-29 4 -43 4q-21 0 -38 -4q-8 53 -42 191l-72 294q-46 186 -75 246q36 -5 49 -5q6 0 36 5q2 -35 13 -79z" />
    <glyph glyph-name="bracketright" unicode="]" horiz-adv-x="200" 
d="M62 -60v761h-51q3 36 3 37q0 16 -3 35q28 -6 63 -6q62 0 91 6q-15 -46 -15 -151l-1 -526q0 -70 5 -157q3 -38 17 -65q-62 2 -93 2q-22 0 -65 -2v14q1 12 1 18q0 26 -1 34h49z" />
    <glyph glyph-name="asciicircum" unicode="^" horiz-adv-x="583" 
d="M337 706l155 -395h-110l-88 231l-93 -231h-110l163 395h83z" />
    <glyph glyph-name="underscore" unicode="_" horiz-adv-x="400" 
d="M408 -75v-50h-416v50h416z" />
    <glyph glyph-name="grave" unicode="`" horiz-adv-x="200" 
d="M197 617h-77q-54 52 -118 146q23 -5 55 -5l72 5q13 -64 68 -146z" />
    <glyph glyph-name="a" unicode="a" horiz-adv-x="466" 
d="M356 425l27 -142q50 -264 93 -285h-85q3 0 -44 3q-35 2 -66 -1l13 21q-1 28 -12 127h-121q-19 -96 -19 -114q0 -24 11 -34q-10 1 -39 0q-38 -2 -62 -2h-63q27 15 43 72q12 39 51 228l28 134l32 142q14 61 14 86q0 35 -26 44q18 0 51 -1h59q23 0 55 1h57q-39 -14 -39 -58
q0 -25 13 -85q26 -123 29 -136zM179 280h83l-40 258z" />
    <glyph glyph-name="b" unicode="b" horiz-adv-x="564" 
d="M47 412v279q0 166 -1.5 239t-13.5 116q-10 29 -21 58h177h91q89 0 129 -19q61 -30 90 -122q18 -58 18 -128q0 -129 -53 -200q-33 -44 -76 -55q41 -10 58 -18q35 -16 58 -46q56 -72 56 -209q0 -191 -98 -266q-61 -48 -154 -46l-280 5q-14 0 -10 0t3 0h-20q40 36 44 98
q3 79 3 314zM211 1025v-365q25 -12 56 -12q35 0 63 42q33 48 33 124q0 91 -21 150q-25 71 -74 68q-21 -2 -57 -7zM212 537v-392q0 -46 16 -63.5t59 -15.5q114 4 114 248q0 77 -36 151q-42 85 -99 85q-2 0 -54 -13z" />
    <glyph glyph-name="c" unicode="c" horiz-adv-x="365" 
d="M263 715q48 0 100 -16q-9 -30 -29 -101q-21 37 -65 37q-69 0 -101 -99q-22 -67 -22 -150q0 -150 25 -223q34 -99 123 -101q36 -1 63 22q-7 -27 -15 -83q-40 -11 -87 -11q-41 0 -77 11q-94 28 -136 124q-33 72 -33 248q0 158 49 240q62 102 205 102z" />
    <glyph glyph-name="d" unicode="d" horiz-adv-x="472" 
d="M39 277v181q0 106 -2 157q-2 37 -11 59q-8 17 -16 33q18 0 53.5 -1.5t52.5 -1.5q14 0 36 1q29 1 35 1l51 1q81 0 129 -37q97 -74 97 -301q0 -148 -36 -235q-33 -81 -94 -112q-44 -23 -115 -23h-205q14 46 17 71q8 62 8 207zM170 487v-234q0 -113 2 -139q2 -40 49 -40
q58 0 82 59q21 52 21 166q0 144 -24 233q-27 105 -81 105q-10 0 -26.5 -1t-18.5 -1q-4 -72 -4 -148z" />
    <glyph glyph-name="e" unicode="e" horiz-adv-x="371" 
d="M176 348l-2 -203q0 -63 1 -71q3 -17 20 -17q6 0 26 3q65 9 84 17q25 11 68 55q-6 -46 -21 -134h-151q1 0 -95 2q-58 1 -96 -2q8 20 10 28q5 15 6 39q3 54 3 204v178q0 75 -1 148q-2 50 -6 70q-2 11 -14 36q18 1 57 0h87h200q1 -1 -5 -51l-7 -54q-13 20 -21 23.5t-37 5.5
q-47 3 -107 1v-194h48q46 0 58 2q19 2 37 13v-50v-65q-20 16 -74 16h-68z" />
    <glyph glyph-name="f" unicode="f" horiz-adv-x="366" 
d="M30 242l1 223q0 130 -3 161q-3 39 -20 77h168q146 0 171 2q1 -2 9 -48q4 -22 10 -68q-22 21 -34 28q-29 15 -79 14l-78 -1q-5 -70 -5 -202h76q73 0 94 16q-6 -43 -6 -53q0 -15 3 -55q-25 15 -97 14l-70 -1q-2 -202 0 -267q2 -48 16 -83h-64h-104q4 13 10 53q2 14 2 190z
" />
    <glyph glyph-name="g" unicode="g" horiz-adv-x="458" 
d="M334 68v159q0 74 -16 100q56 -6 66 -6q42 0 80 6l-6 -16q-7 -17 -9 -83q-5 -164 9 -221q-15 -2 -87 -9q-58 -6 -95 -6q-126 0 -193 91.5t-67 266.5q0 365 286 365q77 0 143 -34q-2 -6 -17 -34q-8 -14 -13 -60q-40 54 -109 54q-134 0 -134 -284q0 -111 21 -189
q29 -102 87 -102q46 0 54 2z" />
    <glyph glyph-name="h" unicode="h" horiz-adv-x="462" 
d="M446 464v-190q0 -247 18 -277h-77h-87q16 47 16 119v250h-156l-1 -230q0 -100 15 -139h-72h-89q17 46 17 110v355q0 123 -2 154q-2 49 -15 86h22h46h91q-12 -42 -12 -110v-134h156q1 95 0 152q-1 53 -13 92h38h43h82q-5 -10 -14 -48q-6 -56 -6 -190z" />
    <glyph glyph-name="i" unicode="i" horiz-adv-x="182" 
d="M153 440v-152q0 -93 2 -158q3 -88 21 -132h-80.5h-80.5q13 38 15 131q1 57 1 164l-2 300q0 64 -17 109q12 1 40 0h43h78q-6 -12 -15 -55q-5 -53 -5 -207z" />
    <glyph glyph-name="j" unicode="j" horiz-adv-x="283" 
d="M247 547l4 -353q1 -90 -19 -128q-38 -75 -162 -75q-27 0 -61 9v82q24 -19 50 -19q67 0 67 98v288q0 149 -4 188q-4 30 -23 66q13 1 40 0h42q75 0 94 2q-10 -8 -23 -37q-6 -33 -5 -121z" />
    <glyph glyph-name="k" unicode="k" horiz-adv-x="482" 
d="M40 123v320q0 64 -3 160q-1 39 -4 52q-4 25 -18 47h46h29h87q-10 -21 -12 -30q-4 -18 -5 -65q-3 -77 -3 -221q129 242 129 297q0 4 -4.5 9t-5.5 10q14 1 43 0h64h87q-73 -26 -194 -283q41 -91 92 -196q37 -80 75 -160q28 -58 43 -65h-96h-92l18 15q4 3 4 13q0 35 -43 144
q-35 89 -66 150l-51 -89l-3 -138q-1 -60 13 -95h-62h-83q15 38 15 125z" />
    <glyph glyph-name="l" unicode="l" horiz-adv-x="334" 
d="M162 460l-2 -135v-161q0 -58 3 -73q6 -19 26 -19q11 0 41 6q42 8 73 34q18 18 35 36q-11 -55 -25 -150q-36 4 -102 2q-107 -2 -97 -2h-105q12 25 15 50q7 43 7 336v190q0 85 -19 129h88h82q-5 -9 -10 -19t-6 -27q-1 -9 -4 -197z" />
    <glyph glyph-name="m" unicode="m" horiz-adv-x="550" 
d="M521 413l2 -124q1 -113 4 -170q4 -87 16 -121h-69h-90q7 25 10 54q10 109 5 373l-2 103q-10 -58 -47 -220l-25 -100q-36 -139 -44 -210h-19v0q-8 27 -44 181l-34 157q-19 64 -52 199q-6 -95 -6 -197v-40q0 -236 1 -249q2 -27 9 -51q-14 3 -24 2q-19 -2 -29 -2h-72
q10 26 15 60q10 80 17 368l3 128q2 76 -1 101q-2 19 -15 47q14 1 47 0h68.5h68.5q3 -15 25 -140q8 -43 46 -226q59 239 79 366h114h59q-13 -37 -14 -124q-2 -115 -2 -165z" />
    <glyph glyph-name="n" unicode="n" horiz-adv-x="415" 
d="M386 402l-2 -143q-1 -102 0 -169q1 -63 13 -92h-58h-73q-37 119 -45 144q-18 53 -53 145l-53 142l-2 -143q-1 -103 3 -202q2 -58 12 -86h-28h-87q11 9 12 30l2 76q1 25 3 218l1 88q1 113 -2 179q-3 72 -18 113h42h59h55q7 -26 35 -108l101 -296l1 90q1 105 -4 220
q-2 64 -16 94q11 1 37 0q7 -1 5 -1t-1 1h11h71q-4 -9 -11 -38q-8 -63 -10 -262z" />
    <glyph glyph-name="o" unicode="o" horiz-adv-x="464" 
d="M456 363q0 -166 -38 -252q-52 -120 -184 -120q-137 0 -186 128q-30 78 -30 235q0 133 31 216q54 145 188 145q141 0 191 -138q28 -75 28 -214zM312 359q0 122 -19 202q-22 87 -59 87q-29 0 -50 -40t-24 -110q-7 -140 -7 -146q0 -144 25 -219q21 -67 57 -67q40 0 53 38
q9 27 17 125q7 86 7 130z" />
    <glyph glyph-name="p" unicode="p" horiz-adv-x="386" 
d="M30 220v203q0 118 -2.5 177.5t-19.5 101.5h28h45h49h81q34 0 47 -3q31 -6 58 -32q61 -58 61 -182q0 -58 -14 -107q-34 -123 -157 -129q1 0 -56 3q-1 -88 1 -158q1 -35 3 -49q4 -26 15 -47h-95h-62q12 23 15 53t3 169zM150 644v-328q9 -3 28 -3q34 0 52 59q15 46 15 107
q0 58 -15 107q-19 61 -54 61q-11 0 -26 -3z" />
    <glyph glyph-name="q" unicode="q" horiz-adv-x="489" 
d="M257 715q90 0 148 -60q78 -81 78 -275q0 -56 -5 -110q-15 -142 -76 -207q22 -39 43 -78q31 -49 64 -49h17h-66q-64 2 -92 0q-1 7 -3 7q-5 0 -4 0q-6 0 -14 12q-20 32 -30 46q-24 -6 -53 -6q-105 0 -162 59q-85 87 -85 305q0 356 240 356zM331 370q0 278 -78 278
q-35 0 -59 -73q-26 -81 -26 -226q0 -127 21 -201q22 -78 62 -78q80 0 80 300z" />
    <glyph glyph-name="r" unicode="r" horiz-adv-x="462" 
d="M31 282l-2 166q0 65 -2 179q-2 49 -19 76h39h25h170q77 -2 121 -73q36 -57 36 -123q0 -75 -26 -130q-18 -37 -57 -65q81 -218 142 -314h-91h-79q13 8 13 33q0 48 -80 245l-50 -7l-20 1l-1 -101q-1 -125 18 -171h-93h-57q10 30 12 87q2 72 1 197zM151 645v-319q9 -2 27 -2
q29 0 57 47q32 53 32 121q0 48 -18 97q-23 61 -61 61q-15 0 -37 -5z" />
    <glyph glyph-name="s" unicode="s" horiz-adv-x="416" 
d="M209 719q40 -1 82 -20.5t51 -19.5q13 0 24 14q-8 -29 -29 -109q-35 33 -39 36q-29 20 -72 22q-33 1 -57 -20q-29 -25 -29 -72q0 -56 47 -90q49 -29 99 -57q120 -72 120 -184q0 -105 -57 -165q-61 -64 -175 -64q-65 0 -110 37q-50 41 -56 110q1 45 19 71q14 21 30 21
q10 0 10 -10q0 -7 -8 -17q-3 -12 -3 -24q0 -41 28 -72.5t59 -33.5q61 -4 95.5 26.5t34.5 88.5q0 64 -61 116q-1 1 -103 63q-73 44 -91 122q-12 55 5 106q43 129 186 125z" />
    <glyph glyph-name="t" unicode="t" horiz-adv-x="417" 
d="M276 446v-113q0 -178 2 -232q2 -46 16 -71q9 -15 32 -32h-114h-130q16 18 32 35q19 27 20 69q3 61 3 229v118q0 131 -3 162l-54 2q-34 1 -64 -22q-22 -17 -31 -38q0 15 9 43q12 40 15 56q4 8 15 51q23 1 78 0q64 -2 96 -2q123 0 181 7q0 -9 19 -69q11 -34 25 -86
q-24 29 -36 38q-32 24 -71 22l-41 -2v-67q1 -67 1 -98z" />
    <glyph glyph-name="u" unicode="u" horiz-adv-x="431" 
d="M303 189v355q0 91 -2.5 112.5t-14.5 45.5h73h62q-4 -8 -11 -36q-4 -43 -4 -210v-252q0 -99 -26 -142q-18 -29 -37 -41q-41 -28 -122 -29q-88 -1 -142 37q-24 18 -40 69q-13 46 -13 95v263q0 126 -2 168q-2 52 -17 78q13 1 41 0h42h87q-8 -21 -10 -31q-4 -16 -5 -52
q-3 -92 -3 -438q0 -61 11 -84q15 -33 64 -33q48 0 60 30q9 21 9 95z" />
    <glyph glyph-name="v" unicode="v" horiz-adv-x="423" 
d="M330 397l-50 -227q-33 -149 -33 -160q0 -7 2 -12h-57q-16 0 -37 2q-15 2 -28 0q8 5 8 26q0 28 -18 109q-27 121 -34 155l-61 325q-9 50 -31 87h80.5h80.5q-11 -19 -11 -38q0 -16 3 -40q8 -58 25 -175l41 -246q4 17 26 134l18 100q34 183 34 235q0 13 -4 30h63h71
q-11 -17 -14 -24q-8 -17 -18 -54q-19 -74 -56 -227z" />
    <glyph glyph-name="w" unicode="w" horiz-adv-x="542" 
d="M486 389l-23 -131q-29 -163 -33 -260h-62h-54q-1 40 -28 309l-18 145l-54 -311q-8 -46 -20 -143h-43h-67q0 34 -22 266l-42 357q-5 40 -21 82q11 1 35 0h47h61q-6 -26 -5 -35l1 -34q6 -125 16 -231l16 -191l32 218q16 109 35 273h42h8h53q0 -18 4 -57q7 -85 28 -274
l18 -168l26 191q28 203 28 278q0 12 -4 30h76h35q-5 -10 -17 -47q-3 -16 -48 -267z" />
    <glyph glyph-name="x" unicode="x" horiz-adv-x="437" 
d="M162 395v0q-28 72 -88 236q-19 53 -73 72h40h54q105 0 117 1q-15 -8 -19 -14.5t-2 -23.5q5 -41 47 -145q3 6 5 9v0q-3 -5 -9 -16v0q1 1 4 7q7 16 30 77q27 74 27 91q0 -3 -9 14h39h59q33 0 57 3q-33 -12 -80 -88.5t-87 -181.5q68 -240 73 -256q54 -168 88 -180h-70
q-68 0 -95 -2l-11 2q6 8 6 23t-9 42l-68 220l-75 -208q-7 -20 -7 -36q0 -20 11 -32q6 -6 15 -10q2 -1 -8 -1h-21h-54h-54q23 36 53 107q26 63 114 290z" />
    <glyph glyph-name="y" unicode="y" horiz-adv-x="395" 
d="M240 247l-2 -143q0 -73 16 -105h-77h-59q5 8 14 32q4 25 4 219l-29 105q-15 60 -71 245q-22 69 -50 105h52h60h41l-1 -2q-1 0 -3 5q-1 3 -1 -3q0 -60 70 -315l36 121q32 108 32 156q0 30 -12 38q-5 3 -6 4v0q4 -5 6 -4q16 1 47 0h17h80q-33 -17 -61 -99q-6 -18 -72 -249z
" />
    <glyph glyph-name="z" unicode="z" horiz-adv-x="376" 
d="M385 702l-10 -14q-16 -21 -97 -298q-80 -272 -80 -295q0 -22 44 -22q26 0 95 17q24 6 44 26q-16 -82 -16 -118q-37 3 -96 2q-93 -2 -79 -2q-11 0 -93 2q-47 1 -91 -2q12 29 56 151l50 140l36 110q56 171 56 208q0 8 -2 11q-34 3 -65 3q-72 0 -91 -5.5t-32 -28.5l12 71
l9 44q3 1 30 0h106h214z" />
    <glyph glyph-name="braceleft" unicode="{" horiz-adv-x="283" 
d="M42 307v34q56 0 56 131v57q0 154 48 209q17 20 59 28q32 4 65 8q-2 -22 -2 -38q0 -5 0 3q1 9 2 3q-13 1 -12 1t-1 0q-47 0 -61 -55q-8 -31 -8 -117v-64q0 -74 -9 -105q-18 -65 -77 -78q59 -13 77 -78q9 -30 9 -102v-64q0 -88 8 -120q14 -55 61 -55q2 0 1.5 0t0.5 0
q2 1 11 1q-1 -6 -2 3q0 8 0 3q0 -16 2 -38q-33 4 -65 8q-42 8 -59 28q-48 55 -48 206v60q0 131 -56 131z" />
    <glyph glyph-name="bar" unicode="|" horiz-adv-x="183" 
d="M142 750v-1000h-101v1000h101z" />
    <glyph glyph-name="braceright" unicode="}" horiz-adv-x="283" 
d="M270 341v-34q-57 0 -57 -131v-60q0 -151 -47 -206q-18 -20 -60 -28l-64 -8q1 22 1 38q0 6 0 2q-1 -4 -1 2q12 -1 11 -1t1 0q47 0 61 50q8 29 8 115v64q0 72 9 102q18 65 77 78q-59 13 -77 78q-9 31 -9 105v64q0 83 -8 112q-14 50 -61 50q-2 0 -1.5 0t-0.5 0q-1 -1 -10 -1
q0 6 1 2q0 -4 0 2q0 16 -1 38l64 -8q42 -8 60 -28q47 -55 47 -209v-57q0 -131 57 -131z" />
    <glyph glyph-name="asciitilde" unicode="~" horiz-adv-x="583" 
d="M459 387l42 -105q-60 -83 -125 -83q-32 0 -86 33q-58 35 -80 35q-24 0 -41 -15q-12 -12 -43 -55l-44 103q54 95 124 95q26 0 59 -16q27 -16 53 -31q41 -23 61 -23q38 0 80 62z" />
    <glyph glyph-name="exclamdown" unicode="&#xa1;" 
 />
    <glyph glyph-name="cent" unicode="&#xa2;" 
 />
    <glyph glyph-name="sterling" unicode="&#xa3;" horiz-adv-x="383" 
d="M149 73h135q33 0 46 3q24 6 38 26q-1 -9 -3 -6l-2 2q-1 -2 -1 -23q0 -43 3 -78q-26 3 -62 3q-24 0 -63 -1.5t-49 -1.5h-176q4 43 4 84q0 13 0 6l-2 -18q-1 -10 -2 -2l17 -2q21 0 44.5 60t23.5 121q0 56 -10 96q-28 1 -71 -6v29v46q31 -5 57 -4q-20 59 -20 117
q0 101 67 149q52 38 135 38q61 0 119 -27q-12 -29 -13 -30q-4 -4 -21 -39q-30 35 -77 36q-37 1 -54.5 -38.5t-13.5 -103.5q4 -56 16 -106q50 -2 95 8v-39v-39q-39 9 -87 7q2 -36 2 -58q0 -58 -19 -121q-23 -74 -56 -88z" />
    <glyph glyph-name="currency" unicode="&#xa4;" 
 />
    <glyph glyph-name="yen" unicode="&#xa5;" 
 />
    <glyph glyph-name="brokenbar" unicode="&#xa6;" 
 />
    <glyph glyph-name="section" unicode="&#xa7;" 
 />
    <glyph glyph-name="dieresis" unicode="&#xa8;" 
 />
    <glyph glyph-name="copyright" unicode="&#xa9;" 
 />
    <glyph glyph-name="ordfeminine" unicode="&#xaa;" 
 />
    <glyph glyph-name="guillemotleft" unicode="&#xab;" 
 />
    <glyph glyph-name="logicalnot" unicode="&#xac;" 
 />
    <glyph glyph-name="minus" unicode="&#xad;" 
 />
    <glyph glyph-name="minus" unicode="&#x2212;" 
 />
    <glyph glyph-name="registered" unicode="&#xae;" 
 />
    <glyph glyph-name="overscore" unicode="&#xaf;" 
 />
    <glyph glyph-name="degree" unicode="&#xb0;" 
 />
    <glyph glyph-name="plusminus" unicode="&#xb1;" 
 />
    <glyph glyph-name="twosuperior" unicode="&#xb2;" 
 />
    <glyph glyph-name="threesuperior" unicode="&#xb3;" 
 />
    <glyph glyph-name="acute" unicode="&#xb4;" 
 />
    <glyph glyph-name="mu1" unicode="&#xb5;" 
 />
    <glyph glyph-name="paragraph" unicode="&#xb6;" 
 />
    <glyph glyph-name="middot" unicode="&#xb7;" 
 />
    <glyph glyph-name="cedilla" unicode="&#xb8;" 
 />
    <glyph glyph-name="onesuperior" unicode="&#xb9;" 
 />
    <glyph glyph-name="ordmasculine" unicode="&#xba;" 
 />
    <glyph glyph-name="guillemotright" unicode="&#xbb;" 
 />
    <glyph glyph-name="onequarter" unicode="&#xbc;" 
 />
    <glyph glyph-name="onehalf" unicode="&#xbd;" 
 />
    <glyph glyph-name="threequarters" unicode="&#xbe;" 
 />
    <glyph glyph-name="questiondown" unicode="&#xbf;" 
 />
    <glyph glyph-name="Agrave" unicode="&#xc0;" 
 />
    <glyph glyph-name="Aacute" unicode="&#xc1;" 
 />
    <glyph glyph-name="Acircumflex" unicode="&#xc2;" 
 />
    <glyph glyph-name="Atilde" unicode="&#xc3;" 
 />
    <glyph glyph-name="Adieresis" unicode="&#xc4;" 
 />
    <glyph glyph-name="Aring" unicode="&#xc5;" 
 />
    <glyph glyph-name="AE" unicode="&#xc6;" 
 />
    <glyph glyph-name="Ccedilla" unicode="&#xc7;" 
 />
    <glyph glyph-name="Egrave" unicode="&#xc8;" 
 />
    <glyph glyph-name="Eacute" unicode="&#xc9;" 
 />
    <glyph glyph-name="Ecircumflex" unicode="&#xca;" 
 />
    <glyph glyph-name="Edieresis" unicode="&#xcb;" 
 />
    <glyph glyph-name="Igrave" unicode="&#xcc;" 
 />
    <glyph glyph-name="Iacute" unicode="&#xcd;" 
 />
    <glyph glyph-name="Icircumflex" unicode="&#xce;" 
 />
    <glyph glyph-name="Idieresis" unicode="&#xcf;" 
 />
    <glyph glyph-name="Eth" unicode="&#xd0;" 
 />
    <glyph glyph-name="Ntilde" unicode="&#xd1;" 
 />
    <glyph glyph-name="Ograve" unicode="&#xd2;" 
 />
    <glyph glyph-name="Oacute" unicode="&#xd3;" 
 />
    <glyph glyph-name="Ocircumflex" unicode="&#xd4;" 
 />
    <glyph glyph-name="Otilde" unicode="&#xd5;" 
 />
    <glyph glyph-name="Odieresis" unicode="&#xd6;" 
 />
    <glyph glyph-name="multiply" unicode="&#xd7;" 
 />
    <glyph glyph-name="Oslash" unicode="&#xd8;" 
 />
    <glyph glyph-name="Ugrave" unicode="&#xd9;" 
 />
    <glyph glyph-name="Uacute" unicode="&#xda;" 
 />
    <glyph glyph-name="Ucircumflex" unicode="&#xdb;" 
 />
    <glyph glyph-name="Udieresis" unicode="&#xdc;" 
 />
    <glyph glyph-name="Yacute" unicode="&#xdd;" 
 />
    <glyph glyph-name="Thorn" unicode="&#xde;" 
 />
    <glyph glyph-name="germandbls" unicode="&#xdf;" 
 />
    <glyph glyph-name="agrave" unicode="&#xe0;" 
 />
    <glyph glyph-name="aacute" unicode="&#xe1;" 
 />
    <glyph glyph-name="acircumflex" unicode="&#xe2;" 
 />
    <glyph glyph-name="atilde" unicode="&#xe3;" 
 />
    <glyph glyph-name="adieresis" unicode="&#xe4;" 
 />
    <glyph glyph-name="aring" unicode="&#xe5;" 
 />
    <glyph glyph-name="ae" unicode="&#xe6;" 
 />
    <glyph glyph-name="ccedilla" unicode="&#xe7;" 
 />
    <glyph glyph-name="egrave" unicode="&#xe8;" 
 />
    <glyph glyph-name="eacute" unicode="&#xe9;" 
 />
    <glyph glyph-name="ecircumflex" unicode="&#xea;" 
 />
    <glyph glyph-name="edieresis" unicode="&#xeb;" 
 />
    <glyph glyph-name="igrave" unicode="&#xec;" 
 />
    <glyph glyph-name="iacute" unicode="&#xed;" 
 />
    <glyph glyph-name="icircumflex" unicode="&#xee;" 
 />
    <glyph glyph-name="idieresis" unicode="&#xef;" 
 />
    <glyph glyph-name="eth" unicode="&#xf0;" 
 />
    <glyph glyph-name="ntilde" unicode="&#xf1;" 
 />
    <glyph glyph-name="ograve" unicode="&#xf2;" 
 />
    <glyph glyph-name="oacute" unicode="&#xf3;" 
 />
    <glyph glyph-name="ocircumflex" unicode="&#xf4;" 
 />
    <glyph glyph-name="otilde" unicode="&#xf5;" 
 />
    <glyph glyph-name="odieresis" unicode="&#xf6;" 
 />
    <glyph glyph-name="divide" unicode="&#xf7;" 
 />
    <glyph glyph-name="oslash" unicode="&#xf8;" 
 />
    <glyph glyph-name="ugrave" unicode="&#xf9;" 
 />
    <glyph glyph-name="uacute" unicode="&#xfa;" 
 />
    <glyph glyph-name="ucircumflex" unicode="&#xfb;" 
 />
    <glyph glyph-name="udieresis" unicode="&#xfc;" 
 />
    <glyph glyph-name="yacute" unicode="&#xfd;" 
 />
    <glyph glyph-name="thorn" unicode="&#xfe;" 
 />
    <glyph glyph-name="ydieresis" unicode="&#xff;" 
 />
    <glyph glyph-name="Amacron" unicode="&#x100;" 
 />
    <glyph glyph-name="amacron" unicode="&#x101;" 
 />
    <glyph glyph-name="Abreve" unicode="&#x102;" 
 />
    <glyph glyph-name="abreve" unicode="&#x103;" 
 />
    <glyph glyph-name="Aogonek" unicode="&#x104;" 
 />
    <glyph glyph-name="aogonek" unicode="&#x105;" 
 />
    <glyph glyph-name="Cacute" unicode="&#x106;" 
 />
    <glyph glyph-name="cacute" unicode="&#x107;" 
 />
    <glyph glyph-name="Ccircumflex" unicode="&#x108;" 
 />
    <glyph glyph-name="ccircumflex" unicode="&#x109;" 
 />
    <glyph glyph-name="Cdot" unicode="&#x10a;" 
 />
    <glyph glyph-name="cdot" unicode="&#x10b;" 
 />
    <glyph glyph-name="Ccaron" unicode="&#x10c;" 
 />
    <glyph glyph-name="ccaron" unicode="&#x10d;" 
 />
    <glyph glyph-name="Dcaron" unicode="&#x10e;" 
 />
    <glyph glyph-name="dcaron" unicode="&#x10f;" 
 />
    <glyph glyph-name="Dslash" unicode="&#x110;" 
 />
    <glyph glyph-name="dcroat" unicode="&#x111;" 
 />
    <glyph glyph-name="Emacron" unicode="&#x112;" 
 />
    <glyph glyph-name="emacron" unicode="&#x113;" 
 />
    <glyph glyph-name="Ebreve" unicode="&#x114;" 
 />
    <glyph glyph-name="ebreve" unicode="&#x115;" 
 />
    <glyph glyph-name="Edot" unicode="&#x116;" 
 />
    <glyph glyph-name="edot" unicode="&#x117;" 
 />
    <glyph glyph-name="Eogonek" unicode="&#x118;" 
 />
    <glyph glyph-name="eogonek" unicode="&#x119;" 
 />
    <glyph glyph-name="Ecaron" unicode="&#x11a;" 
 />
    <glyph glyph-name="ecaron" unicode="&#x11b;" 
 />
    <glyph glyph-name="Gcircumflex" unicode="&#x11c;" 
 />
    <glyph glyph-name="gcircumflex" unicode="&#x11d;" 
 />
    <glyph glyph-name="Gbreve" unicode="&#x11e;" 
 />
    <glyph glyph-name="gbreve" unicode="&#x11f;" 
 />
    <glyph glyph-name="Gdot" unicode="&#x120;" 
 />
    <glyph glyph-name="gdot" unicode="&#x121;" 
 />
    <glyph glyph-name="Gcedilla" unicode="&#x122;" 
 />
    <glyph glyph-name="gcedilla" unicode="&#x123;" 
 />
    <glyph glyph-name="Hcircumflex" unicode="&#x124;" 
 />
    <glyph glyph-name="hcircumflex" unicode="&#x125;" 
 />
    <glyph glyph-name="Hbar" unicode="&#x126;" 
 />
    <glyph glyph-name="hbar" unicode="&#x127;" 
 />
    <glyph glyph-name="Itilde" unicode="&#x128;" 
 />
    <glyph glyph-name="itilde" unicode="&#x129;" 
 />
    <glyph glyph-name="Imacron" unicode="&#x12a;" 
 />
    <glyph glyph-name="imacron" unicode="&#x12b;" 
 />
    <glyph glyph-name="Ibreve" unicode="&#x12c;" 
 />
    <glyph glyph-name="ibreve" unicode="&#x12d;" 
 />
    <glyph glyph-name="Iogonek" unicode="&#x12e;" 
 />
    <glyph glyph-name="iogonek" unicode="&#x12f;" 
 />
    <glyph glyph-name="Idotaccent" unicode="&#x130;" 
 />
    <glyph glyph-name="dotlessi" unicode="&#x131;" 
 />
    <glyph glyph-name="IJ" unicode="&#x132;" 
 />
    <glyph glyph-name="ij" unicode="&#x133;" 
 />
    <glyph glyph-name="Jcircumflex" unicode="&#x134;" 
 />
    <glyph glyph-name="jcircumflex" unicode="&#x135;" 
 />
    <glyph glyph-name="Kcedilla" unicode="&#x136;" 
 />
    <glyph glyph-name="kcedilla" unicode="&#x137;" 
 />
    <glyph glyph-name="kgreenlandic" unicode="&#x138;" 
 />
    <glyph glyph-name="Lacute" unicode="&#x139;" 
 />
    <glyph glyph-name="lacute" unicode="&#x13a;" 
 />
    <glyph glyph-name="Lcedilla" unicode="&#x13b;" 
 />
    <glyph glyph-name="lcedilla" unicode="&#x13c;" 
 />
    <glyph glyph-name="Lcaron" unicode="&#x13d;" 
 />
    <glyph glyph-name="lcaron" unicode="&#x13e;" 
 />
    <glyph glyph-name="Ldot" unicode="&#x13f;" 
 />
    <glyph glyph-name="ldot" unicode="&#x140;" 
 />
    <glyph glyph-name="Lslash" unicode="&#x141;" 
 />
    <glyph glyph-name="lslash" unicode="&#x142;" 
 />
    <glyph glyph-name="Nacute" unicode="&#x143;" 
 />
    <glyph glyph-name="nacute" unicode="&#x144;" 
 />
    <glyph glyph-name="Ncedilla" unicode="&#x145;" 
 />
    <glyph glyph-name="ncedilla" unicode="&#x146;" 
 />
    <glyph glyph-name="Ncaron" unicode="&#x147;" 
 />
    <glyph glyph-name="ncaron" unicode="&#x148;" 
 />
    <glyph glyph-name="napostrophe" unicode="&#x149;" 
 />
    <glyph glyph-name="Eng" unicode="&#x14a;" 
 />
    <glyph glyph-name="eng" unicode="&#x14b;" 
 />
    <glyph glyph-name="Omacron" unicode="&#x14c;" 
 />
    <glyph glyph-name="omacron" unicode="&#x14d;" 
 />
    <glyph glyph-name="Obreve" unicode="&#x14e;" 
 />
    <glyph glyph-name="obreve" unicode="&#x14f;" 
 />
    <glyph glyph-name="Odblacute" unicode="&#x150;" 
 />
    <glyph glyph-name="odblacute" unicode="&#x151;" 
 />
    <glyph glyph-name="OE" unicode="&#x152;" 
 />
    <glyph glyph-name="oe" unicode="&#x153;" 
 />
    <glyph glyph-name="Racute" unicode="&#x154;" 
 />
    <glyph glyph-name="racute" unicode="&#x155;" 
 />
    <glyph glyph-name="Rcedilla" unicode="&#x156;" 
 />
    <glyph glyph-name="rcedilla" unicode="&#x157;" 
 />
    <glyph glyph-name="Rcaron" unicode="&#x158;" 
 />
    <glyph glyph-name="rcaron" unicode="&#x159;" 
 />
    <glyph glyph-name="Sacute" unicode="&#x15a;" 
 />
    <glyph glyph-name="sacute" unicode="&#x15b;" 
 />
    <glyph glyph-name="Scircumflex" unicode="&#x15c;" 
 />
    <glyph glyph-name="scircumflex" unicode="&#x15d;" 
 />
    <glyph glyph-name="Scedilla" unicode="&#x15e;" 
 />
    <glyph glyph-name="scedilla" unicode="&#x15f;" 
 />
    <glyph glyph-name="Scaron" unicode="&#x160;" 
 />
    <glyph glyph-name="scaron" unicode="&#x161;" 
 />
    <glyph glyph-name="Tcedilla" unicode="&#x162;" 
 />
    <glyph glyph-name="tcedilla" unicode="&#x163;" 
 />
    <glyph glyph-name="Tcaron" unicode="&#x164;" 
 />
    <glyph glyph-name="tcaron" unicode="&#x165;" 
 />
    <glyph glyph-name="Tbar" unicode="&#x166;" 
 />
    <glyph glyph-name="tbar" unicode="&#x167;" 
 />
    <glyph glyph-name="Utilde" unicode="&#x168;" 
 />
    <glyph glyph-name="utilde" unicode="&#x169;" 
 />
    <glyph glyph-name="Umacron" unicode="&#x16a;" 
 />
    <glyph glyph-name="umacron" unicode="&#x16b;" 
 />
    <glyph glyph-name="Ubreve" unicode="&#x16c;" 
 />
    <glyph glyph-name="ubreve" unicode="&#x16d;" 
 />
    <glyph glyph-name="Uring" unicode="&#x16e;" 
 />
    <glyph glyph-name="uring" unicode="&#x16f;" 
 />
    <glyph glyph-name="Udblacute" unicode="&#x170;" 
 />
    <glyph glyph-name="udblacute" unicode="&#x171;" 
 />
    <glyph glyph-name="Uogonek" unicode="&#x172;" 
 />
    <glyph glyph-name="uogonek" unicode="&#x173;" 
 />
    <glyph glyph-name="Wcircumflex" unicode="&#x174;" 
 />
    <glyph glyph-name="wcircumflex" unicode="&#x175;" 
 />
    <glyph glyph-name="Ycircumflex" unicode="&#x176;" 
 />
    <glyph glyph-name="ycircumflex" unicode="&#x177;" 
 />
    <glyph glyph-name="Ydieresis" unicode="&#x178;" 
 />
    <glyph glyph-name="Zacute" unicode="&#x179;" 
 />
    <glyph glyph-name="zacute" unicode="&#x17a;" 
 />
    <glyph glyph-name="Zdot" unicode="&#x17b;" 
 />
    <glyph glyph-name="zdot" unicode="&#x17c;" 
 />
    <glyph glyph-name="Zcaron" unicode="&#x17d;" 
 />
    <glyph glyph-name="zcaron" unicode="&#x17e;" 
 />
    <glyph glyph-name="longs" unicode="&#x17f;" 
 />
    <glyph glyph-name="florin" unicode="&#x192;" 
 />
    <glyph glyph-name="Aringacute" unicode="&#x1fa;" 
 />
    <glyph glyph-name="aringacute" unicode="&#x1fb;" 
 />
    <glyph glyph-name="AEacute" unicode="&#x1fc;" 
 />
    <glyph glyph-name="aeacute" unicode="&#x1fd;" 
 />
    <glyph glyph-name="Oslashacute" unicode="&#x1fe;" 
 />
    <glyph glyph-name="oslashacute" unicode="&#x1ff;" 
 />
    <glyph glyph-name="circumflex" unicode="&#x2c6;" 
 />
    <glyph glyph-name="caron" unicode="&#x2c7;" 
 />
    <glyph glyph-name="macron" unicode="&#x2c9;" 
 />
    <glyph glyph-name="breve" unicode="&#x2d8;" 
 />
    <glyph glyph-name="dotaccent" unicode="&#x2d9;" 
 />
    <glyph glyph-name="ring" unicode="&#x2da;" 
 />
    <glyph glyph-name="ogonek" unicode="&#x2db;" 
 />
    <glyph glyph-name="tilde" unicode="&#x2dc;" 
 />
    <glyph glyph-name="hungarumlaut" unicode="&#x2dd;" 
 />
    <glyph glyph-name="tonos" unicode="&#x384;" 
 />
    <glyph glyph-name="dieresistonos" unicode="&#x385;" 
 />
    <glyph glyph-name="Alphatonos" unicode="&#x386;" 
 />
    <glyph glyph-name="anoteleia" unicode="&#x387;" 
 />
    <glyph glyph-name="Epsilontonos" unicode="&#x388;" 
 />
    <glyph glyph-name="Etatonos" unicode="&#x389;" 
 />
    <glyph glyph-name="Iotatonos" unicode="&#x38a;" 
 />
    <glyph glyph-name="Omicrontonos" unicode="&#x38c;" 
 />
    <glyph glyph-name="Upsilontonos" unicode="&#x38e;" 
 />
    <glyph glyph-name="Omegatonos" unicode="&#x38f;" 
 />
    <glyph glyph-name="iotadieresistonos" unicode="&#x390;" 
 />
    <glyph glyph-name="Alpha" unicode="&#x391;" 
 />
    <glyph glyph-name="Beta" unicode="&#x392;" 
 />
    <glyph glyph-name="Gamma" unicode="&#x393;" 
 />
    <glyph glyph-name="Delta" unicode="&#x394;" 
 />
    <glyph glyph-name="Epsilon" unicode="&#x395;" 
 />
    <glyph glyph-name="Zeta" unicode="&#x396;" 
 />
    <glyph glyph-name="Eta" unicode="&#x397;" 
 />
    <glyph glyph-name="Theta" unicode="&#x398;" 
 />
    <glyph glyph-name="Theta" unicode="&#x472;" 
 />
    <glyph glyph-name="Iota" unicode="&#x399;" 
 />
    <glyph glyph-name="Kappa" unicode="&#x39a;" 
 />
    <glyph glyph-name="Lambda" unicode="&#x39b;" 
 />
    <glyph glyph-name="Mu" unicode="&#x39c;" 
 />
    <glyph glyph-name="Nu" unicode="&#x39d;" 
 />
    <glyph glyph-name="Xi" unicode="&#x39e;" 
 />
    <glyph glyph-name="Omicron" unicode="&#x39f;" 
 />
    <glyph glyph-name="Pi" unicode="&#x3a0;" 
 />
    <glyph glyph-name="Rho" unicode="&#x3a1;" 
 />
    <glyph glyph-name="Sigma" unicode="&#x3a3;" 
 />
    <glyph glyph-name="Tau" unicode="&#x3a4;" 
 />
    <glyph glyph-name="Upsilon" unicode="&#x3a5;" 
 />
    <glyph glyph-name="Phi" unicode="&#x3a6;" 
 />
    <glyph glyph-name="Chi" unicode="&#x3a7;" 
 />
    <glyph glyph-name="Psi" unicode="&#x3a8;" 
 />
    <glyph glyph-name="Psi" unicode="&#x470;" 
 />
    <glyph glyph-name="Omega" unicode="&#x3a9;" 
 />
    <glyph glyph-name="Iotadieresis" unicode="&#x3aa;" 
 />
    <glyph glyph-name="Upsilondieresis" unicode="&#x3ab;" 
 />
    <glyph glyph-name="alphatonos" unicode="&#x3ac;" 
 />
    <glyph glyph-name="epsilontonos" unicode="&#x3ad;" 
 />
    <glyph glyph-name="etatonos" unicode="&#x3ae;" 
 />
    <glyph glyph-name="iotatonos" unicode="&#x3af;" 
 />
    <glyph glyph-name="upsilondieresistonos" unicode="&#x3b0;" 
 />
    <glyph glyph-name="alpha" unicode="&#x3b1;" 
 />
    <glyph glyph-name="beta" unicode="&#x3b2;" 
 />
    <glyph glyph-name="gamma" unicode="&#x3b3;" 
 />
    <glyph glyph-name="delta" unicode="&#x3b4;" 
 />
    <glyph glyph-name="epsilon" unicode="&#x3b5;" 
 />
    <glyph glyph-name="zeta" unicode="&#x3b6;" 
 />
    <glyph glyph-name="eta" unicode="&#x3b7;" 
 />
    <glyph glyph-name="theta" unicode="&#x3b8;" 
 />
    <glyph glyph-name="theta" unicode="&#x473;" 
 />
    <glyph glyph-name="iota" unicode="&#x3b9;" 
 />
    <glyph glyph-name="kappa" unicode="&#x3ba;" 
 />
    <glyph glyph-name="lambda" unicode="&#x3bb;" 
 />
    <glyph glyph-name="mu" unicode="&#x3bc;" 
 />
    <glyph glyph-name="nu" unicode="&#x3bd;" 
 />
    <glyph glyph-name="afii10098" unicode="&#x491;" 
 />
    <glyph glyph-name="Wgrave" unicode="&#x1e80;" 
 />
    <glyph glyph-name="wgrave" unicode="&#x1e81;" 
 />
    <glyph glyph-name="Wacute" unicode="&#x1e82;" 
 />
    <glyph glyph-name="wacute" unicode="&#x1e83;" 
 />
    <glyph glyph-name="Wdieresis" unicode="&#x1e84;" 
 />
    <glyph glyph-name="wdieresis" unicode="&#x1e85;" 
 />
    <glyph glyph-name="Ygrave" unicode="&#x1ef2;" 
 />
    <glyph glyph-name="ygrave" unicode="&#x1ef3;" 
 />
    <glyph glyph-name="endash" unicode="&#x2013;" 
 />
    <glyph glyph-name="emdash" unicode="&#x2014;" 
 />
    <glyph glyph-name="afii00208" unicode="&#x2015;" 
 />
    <glyph glyph-name="underscoredbl" unicode="&#x2017;" 
 />
    <glyph glyph-name="quoteleft" unicode="&#x2018;" 
 />
    <glyph glyph-name="quoteright" unicode="&#x2019;" 
 />
    <glyph glyph-name="quotesinglbase" unicode="&#x201a;" 
 />
    <glyph glyph-name="quotereversed" unicode="&#x201b;" 
 />
    <glyph glyph-name="quotedblleft" unicode="&#x201c;" 
 />
    <glyph glyph-name="quotedblright" unicode="&#x201d;" 
 />
    <glyph glyph-name="quotedblbase" unicode="&#x201e;" 
 />
    <glyph glyph-name="dagger" unicode="&#x2020;" 
 />
    <glyph glyph-name="daggerdbl" unicode="&#x2021;" 
 />
    <glyph glyph-name="bullet" unicode="&#x2022;" 
 />
    <glyph glyph-name="ellipsis" unicode="&#x2026;" 
 />
    <glyph glyph-name="perthousand" unicode="&#x2030;" 
 />
    <glyph glyph-name="minute" unicode="&#x2032;" 
 />
    <glyph glyph-name="second" unicode="&#x2033;" 
 />
    <glyph glyph-name="guilsinglleft" unicode="&#x2039;" 
 />
    <glyph glyph-name="guilsinglright" unicode="&#x203a;" 
 />
    <glyph glyph-name="exclamdbl" unicode="&#x203c;" 
 />
    <glyph glyph-name="radicalex" unicode="&#x203e;" 
 />
    <glyph glyph-name="fraction" unicode="&#x2044;" 
 />
    <glyph glyph-name="nsuperior" unicode="&#x207f;" 
 />
    <glyph glyph-name="franc" unicode="&#x20a3;" 
 />
    <glyph glyph-name="afii08941" unicode="&#x20a4;" 
 />
    <glyph glyph-name="peseta" unicode="&#x20a7;" 
 />
    <glyph glyph-name="afii61248" unicode="&#x2105;" 
 />
    <glyph glyph-name="afii61289" unicode="&#x2113;" 
 />
    <glyph glyph-name="afii61352" unicode="&#x2116;" 
 />
    <glyph glyph-name="trademark" unicode="&#x2122;" 
 />
    <glyph glyph-name="Ohm" unicode="&#x2126;" 
 />
    <glyph glyph-name="estimated" unicode="&#x212e;" 
 />
    <glyph glyph-name="oneeighth" unicode="&#x215b;" 
 />
    <glyph glyph-name="threeeighths" unicode="&#x215c;" 
 />
    <glyph glyph-name="fiveeighths" unicode="&#x215d;" 
 />
    <glyph glyph-name="seveneighths" unicode="&#x215e;" 
 />
    <glyph glyph-name="arrowleft" unicode="&#x2190;" 
 />
    <glyph glyph-name="arrowup" unicode="&#x2191;" 
 />
    <glyph glyph-name="arrowright" unicode="&#x2192;" 
 />
    <glyph glyph-name="arrowdown" unicode="&#x2193;" 
 />
    <glyph glyph-name="arrowboth" unicode="&#x2194;" 
 />
    <glyph glyph-name="arrowupdn" unicode="&#x2195;" 
 />
    <glyph glyph-name="arrowupdnbse" unicode="&#x21a8;" 
 />
    <glyph glyph-name="partialdiff" unicode="&#x2202;" 
 />
    <glyph glyph-name="increment" unicode="&#x2206;" 
 />
    <glyph glyph-name="product" unicode="&#x220f;" 
 />
    <glyph glyph-name="summation" unicode="&#x2211;" 
 />
    <glyph glyph-name="periodcentered" unicode="&#x2219;" 
 />
    <glyph glyph-name="radical" unicode="&#x221a;" 
 />
    <glyph glyph-name="infinity" unicode="&#x221e;" 
 />
    <glyph glyph-name="orthogonal" unicode="&#x221f;" 
 />
    <glyph glyph-name="intersection" unicode="&#x2229;" 
 />
    <glyph glyph-name="integral" unicode="&#x222b;" 
 />
    <glyph glyph-name="approxequal" unicode="&#x2248;" 
 />
    <glyph glyph-name="approxequal" unicode="&#x22f2;" 
 />
    <glyph glyph-name="notequal" unicode="&#x2260;" 
 />
    <glyph glyph-name="equivalence" unicode="&#x2261;" 
 />
    <glyph glyph-name="lessequal" unicode="&#x2264;" 
 />
    <glyph glyph-name="greaterequal" unicode="&#x2265;" 
 />
    <glyph glyph-name="house" unicode="&#x2302;" 
 />
    <glyph glyph-name="revlogicalnot" unicode="&#x2310;" 
 />
    <glyph glyph-name="integraltp" unicode="&#x2320;" 
 />
    <glyph glyph-name="integralbt" unicode="&#x2321;" 
 />
    <glyph glyph-name="SF100000" unicode="&#x2500;" 
 />
    <glyph glyph-name="SF110000" unicode="&#x2502;" 
 />
    <glyph glyph-name="SF010000" unicode="&#x250c;" 
 />
    <glyph glyph-name="SF030000" unicode="&#x2510;" 
 />
    <glyph glyph-name="SF020000" unicode="&#x2514;" 
 />
    <glyph glyph-name="SF040000" unicode="&#x2518;" 
 />
    <glyph glyph-name="SF080000" unicode="&#x251c;" 
 />
    <glyph glyph-name="SF090000" unicode="&#x2524;" 
 />
    <glyph glyph-name="SF060000" unicode="&#x252c;" 
 />
    <glyph glyph-name="SF070000" unicode="&#x2534;" 
 />
    <glyph glyph-name="SF050000" unicode="&#x253c;" 
 />
    <glyph glyph-name="SF430000" unicode="&#x2550;" 
 />
    <glyph glyph-name="SF240000" unicode="&#x2551;" 
 />
    <glyph glyph-name="SF510000" unicode="&#x2552;" 
 />
    <glyph glyph-name="SF520000" unicode="&#x2553;" 
 />
    <glyph glyph-name="SF390000" unicode="&#x2554;" 
 />
    <glyph glyph-name="SF220000" unicode="&#x2555;" 
 />
    <glyph glyph-name="SF210000" unicode="&#x2556;" 
 />
    <glyph glyph-name="SF250000" unicode="&#x2557;" 
 />
    <glyph glyph-name="SF500000" unicode="&#x2558;" 
 />
    <glyph glyph-name="SF490000" unicode="&#x2559;" 
 />
    <glyph glyph-name="SF380000" unicode="&#x255a;" 
 />
    <glyph glyph-name="SF280000" unicode="&#x255b;" 
 />
    <glyph glyph-name="SF270000" unicode="&#x255c;" 
 />
    <glyph glyph-name="SF260000" unicode="&#x255d;" 
 />
    <glyph glyph-name="SF360000" unicode="&#x255e;" 
 />
    <glyph glyph-name="SF370000" unicode="&#x255f;" 
 />
    <glyph glyph-name="SF420000" unicode="&#x2560;" 
 />
    <glyph glyph-name="SF190000" unicode="&#x2561;" 
 />
    <glyph glyph-name="SF200000" unicode="&#x2562;" 
 />
    <glyph glyph-name="SF230000" unicode="&#x2563;" 
 />
    <glyph glyph-name="SF470000" unicode="&#x2564;" 
 />
    <glyph glyph-name="SF480000" unicode="&#x2565;" 
 />
    <glyph glyph-name="SF410000" unicode="&#x2566;" 
 />
    <glyph glyph-name="SF450000" unicode="&#x2567;" 
 />
    <glyph glyph-name="SF460000" unicode="&#x2568;" 
 />
    <glyph glyph-name="SF400000" unicode="&#x2569;" 
 />
    <glyph glyph-name="SF540000" unicode="&#x256a;" 
 />
    <glyph glyph-name="SF530000" unicode="&#x256b;" 
 />
    <glyph glyph-name="SF440000" unicode="&#x256c;" 
 />
    <glyph glyph-name="upblock" unicode="&#x2580;" 
 />
    <glyph glyph-name="dnblock" unicode="&#x2584;" 
 />
    <glyph glyph-name="block" unicode="&#x2588;" 
 />
    <glyph glyph-name="lfblock" unicode="&#x258c;" 
 />
    <glyph glyph-name="rtblock" unicode="&#x2590;" 
 />
    <glyph glyph-name="ltshade" unicode="&#x2591;" 
 />
    <glyph glyph-name="shade" unicode="&#x2592;" 
 />
    <glyph glyph-name="dkshade" unicode="&#x2593;" 
 />
    <glyph glyph-name="filledbox" unicode="&#x25a0;" 
 />
    <glyph glyph-name="H22073" unicode="&#x25a1;" 
 />
    <glyph glyph-name="H18543" unicode="&#x25aa;" 
 />
    <glyph glyph-name="H18551" unicode="&#x25ab;" 
 />
    <glyph glyph-name="filledrect" unicode="&#x25ac;" 
 />
    <glyph glyph-name="triagup" unicode="&#x25b2;" 
 />
    <glyph glyph-name="triagrt" unicode="&#x25ba;" 
 />
    <glyph glyph-name="triagdn" unicode="&#x25bc;" 
 />
    <glyph glyph-name="triaglf" unicode="&#x25c4;" 
 />
    <glyph glyph-name="lozenge" unicode="&#x25ca;" 
 />
    <glyph glyph-name="circle" unicode="&#x25cb;" 
 />
    <glyph glyph-name="H18533" unicode="&#x25cf;" 
 />
    <glyph glyph-name="invbullet" unicode="&#x25d8;" 
 />
    <glyph glyph-name="invcircle" unicode="&#x25d9;" 
 />
    <glyph glyph-name="openbullet" unicode="&#x25e6;" 
 />
    <glyph glyph-name="smileface" unicode="&#x263a;" 
 />
    <glyph glyph-name="invsmileface" unicode="&#x263b;" 
 />
    <glyph glyph-name="sun" unicode="&#x263c;" 
 />
    <glyph glyph-name="female" unicode="&#x2640;" 
 />
    <glyph glyph-name="male" unicode="&#x2642;" 
 />
    <glyph glyph-name="spade" unicode="&#x2660;" 
 />
    <glyph glyph-name="club" unicode="&#x2663;" 
 />
    <glyph glyph-name="heart" unicode="&#x2665;" 
 />
    <glyph glyph-name="diamond" unicode="&#x2666;" 
 />
    <glyph glyph-name="musicalnote" unicode="&#x266a;" 
 />
    <glyph glyph-name="musicalnotedbl" unicode="&#x266b;" 
 />
    <glyph glyph-name="fi" unicode="&#xf001;" 
 />
    <glyph glyph-name="fl" unicode="&#xf002;" 
 />
    <glyph glyph-name="fi2" unicode="&#xfb01;" 
 />
    <glyph glyph-name="glyph98" 
 />
    <glyph glyph-name="glyph111" 
 />
    <glyph glyph-name="glyph322" 
 />
    <glyph glyph-name="glyph339" 
 />
    <glyph glyph-name="glyph396" 
 />
    <glyph glyph-name="glyph405" 
 />
    <glyph glyph-name="glyph417" 
 />
    <glyph glyph-name="glyph431" 
 />
    <glyph glyph-name="glyph435" 
 />
    <glyph glyph-name="glyph442" 
 />
    <glyph glyph-name="glyph447" 
 />
    <glyph glyph-name="glyph455" 
 />
    <glyph glyph-name="glyph461" 
 />
    <glyph glyph-name="glyph473" 
 />
    <glyph glyph-name="glyph475" 
 />
    <glyph glyph-name="glyph479" 
 />
    <glyph glyph-name="glyph520" 
 />
    <glyph glyph-name="glyph544" 
 />
    <glyph glyph-name="glyph554" 
 />
    <glyph glyph-name="glyph560" horiz-adv-x="200" 
 />
    </font>
</defs>
</svg>
